<svg xmlns="http://www.w3.org/2000/svg" version="1.1" xmlns:xlink="http://www.w3.org/1999/xlink" width="1000" height="1000"><g clip-path="url(#SvgjsClipPath1006)"><rect width="1000" height="1000" fill="#ffffff"></rect><g transform="matrix(1.2106328150671901,0,0,1.2106328150671901,150,318.38086508362017)"><svg xmlns="http://www.w3.org/2000/svg" version="1.1" xmlns:xlink="http://www.w3.org/1999/xlink" width="578.21" height="300.04"><svg id="Layer_1" data-name="Layer 1" xmlns="http://www.w3.org/2000/svg" viewBox="0 0 578.21 300.04">
  <g id="_6dt9jK.tif" data-name="6dt9jK.tif">
    <g>
      <path d="M551.49,170.93c32.17,21.82,34.7,62.01,10.82,88.71-19.02,21.27-51.5,32.43-79.21,36.69-30.54,5.92-60.18,1.64-91.08,1.36l-79.82-.72.13-205.55c0-14.71,3.06-28.18,8.96-41.28,8.27-18.37,23.17-31.52,41.5-39.76C381.81,1.84,402.07-.61,423.05.12c37.16,1.3,79.85,7.38,109.54,30.94,22.52,17.88,30.3,48.18,16.89,73.92-12.38,23.77-40.97,35.37-66.97,42.37,24.03,4.52,47.04,8.71,68.97,23.58ZM486.37,219.94c-11.04-29.03-39.1-63.83-73.4-64.6-.45-3.24-.46-6.5-.07-9.66,12.54-.45,23.6-2.3,34.04-8.23,23.67-13.44,19.56-39.53,7.1-59.9-7.89-12.9-17.32-24.16-29.55-33.13-15.45-11.33-33.13-18.29-52.39-18.68-8.7-.18-17.5,1.38-23.94,7.16-7.29,6.53-7.23,17.66-1.7,25.55,14.4,20.57,60.93,23.71,60.99,73.26l.14,125.56c17.57,21.24,46.36,43.32,74.14,24.67,15.31-14.75,11.63-43.63,4.64-62Z"></path>
      <path d="M253.99,253.42c-55.97,60.12-149.28,62.21-207.95,5.6C-6.99,207.85-15.41,124.51,27.06,63.63,54.45,24.36,99.04.71,146.58.55c47.75-.16,92.64,23,120.31,62.26,41.04,58.21,35.68,138.43-12.9,190.61ZM205.45,271.05c11.24,1.24,19.96-4.36,24.08-14.11,8.7-20.6.49-53.71-7.42-74.72-19.17-50.9-59.26-112.81-105.79-142.54-8.02-5.13-16.77-8.74-26.07-10.09-11.41-1.66-21.45,3.85-25.63,14.54-7.99,20.39-.25,52.12,7.36,72.72,15.56,42.1,39.24,80.74,69.97,113.41,15.21,16.18,40.33,38.24,63.5,40.79Z"></path>
    </g>
  </g>
</svg></svg></g></g><defs><clipPath id="SvgjsClipPath1006"><rect width="1000" height="1000" x="0" y="0" rx="350" ry="350"></rect></clipPath></defs></svg>